{
  "accessors": [
    {
      "bufferView": 2,
      "componentType": 5126,
      "count": 121,
      "max": [
        0.5,
        0.0,
        0.5
      ],
      "min": [
        -0.5,
        0.0,
        -0.5
      ],
      "type": "VEC3"
    },
    {
      "bufferView": 2,
      "byteOffset": 1452,
      "componentType": 5126,
      "count": 121,
      "max": [
        0.0,
        1.0,
        0.0
      ],
      "min": [
        0.0,
        1.0,
        0.0
      ],
      "type": "VEC3"
    },
    {
      "bufferView": 1,
      "componentType": 5126,
      "count": 121,
      "max": [
        1.0,
        1.0
      ],
      "min": [
        0.0,
        0.0
      ],
      "type": "VEC2"
    },
    {
      "bufferView": 0,
      "componentType": 5125,
      "count": 600,
      "type": "SCALAR"
    },
    {
      "bufferView": 2,
      "byteOffset": 2904,
      "componentType": 5126,
      "count": 11576,
      "max": [
        3.1477887630462646,
        21.077810287475586,
        14.22028636932373
      ],
      "min": [
        -3.2692816257476807,
        0.5655329823493958,
        -12.978128433227539
      ],
      "type": "VEC3"
    },
    {
      "bufferView": 2,
      "byteOffset": 141816,
      "componentType": 5126,
      "count": 11576,
      "max": [
        0.9998942613601685,
        0.9996152520179749,
        0.9999998807907104
      ],
      "min": [
        -0.9999659061431885,
        -0.9999992847442627,
        -0.999467670917511
      ],
      "type": "VEC3"
    },
    {
      "bufferView": 1,
      "byteOffset": 968,
      "componentType": 5126,
      "count": 11576,
      "max": [
        0.9992750287055969,
        0.9964849352836609
      ],
      "min": [
        0.0005000000237487257,
        0.0013119999784976244
      ],
      "type": "VEC2"
    },
    {
      "bufferView": 2,
      "byteOffset": 280728,
      "componentType": 5126,
      "count": 11576,
      "max": [
        0.056505680084228516,
        0.9872380495071411,
        0.5952272415161133
      ],
      "min": [
        -0.062212228775024414,
        -1.0795131921768188,
        -0.6976175308227539
      ],
      "type": "VEC3"
    },
    {
      "bufferView": 2,
      "byteOffset": 419640,
      "componentType": 5126,
      "count": 11576,
      "max": [
        0.5097726583480835,
        0.32449185848236084,
        1.2295066118240356
      ],
      "min": [
        -0.37395238876342773,
        -0.3777692914009094,
        -0.4205303490161896
      ],
      "type": "VEC3"
    },
    {
      "bufferView": 2,
      "byteOffset": 558552,
      "componentType": 5126,
      "count": 11576,
      "max": [
        0.14866268634796143,
        1.7731441259384155,
        1.552828311920166
      ],
      "min": [
        -0.16514694690704346,
        -1.5074639320373535,
        -1.4344539642333984
      ],
      "type": "VEC3"
    },
    {
      "bufferView": 2,
      "byteOffset": 697464,
      "componentType": 5126,
      "count": 11576,
      "max": [
        0.9872214198112488,
        0.5071769952774048,
        1.9376699924468994
      ],
      "min": [
        -0.8527709245681763,
        -0.7060005068778992,
        -0.5279943346977234
      ],
      "type": "VEC3"
    },
    {
      "bufferView": 2,
      "byteOffset": 836376,
      "componentType": 5126,
      "count": 11576,
      "max": [
        0.19402408599853516,
        2.0864710807800293,
        2.9147677421569824
      ],
      "min": [
        -0.34088659286499023,
        -1.625051498413086,
        -2.9163870811462402
      ],
      "type": "VEC3"
    },
    {
      "bufferView": 2,
      "byteOffset": 975288,
      "componentType": 5126,
      "count": 11576,
      "max": [
        1.233880639076233,
        0.6395379304885864,
        1.9710590839385986
      ],
      "min": [
        -1.1404192447662354,
        -0.9721058011054993,
        -0.6175330281257629
      ],
      "type": "VEC3"
    },
    {
      "bufferView": 2,
      "byteOffset": 1114200,
      "componentType": 5126,
      "count": 11576,
      "max": [
        0.21243798732757568,
        1.897990107536316,
        4.405802249908447
      ],
      "min": [
        -0.4595513343811035,
        -2.030632972717285,
        -4.538190841674805
      ],
      "type": "VEC3"
    },
    {
      "bufferView": 2,
      "byteOffset": 1253112,
      "componentType": 5126,
      "count": 11576,
      "max": [
        1.366275429725647,
        0.8048869371414185,
        1.9535930156707764
      ],
      "min": [
        -1.6087276935577393,
        -1.1309117078781128,
        -0.8776848912239075
      ],
      "type": "VEC3"
    },
    {
      "bufferView": 2,
      "byteOffset": 1392024,
      "componentType": 5126,
      "count": 11576,
      "max": [
        0.2357543706893921,
        2.081038475036621,
        5.534775733947754
      ],
      "min": [
        -0.3401409387588501,
        -2.2305850982666016,
        -6.049805641174316
      ],
      "type": "VEC3"
    },
    {
      "bufferView": 2,
      "byteOffset": 1530936,
      "componentType": 5126,
      "count": 11576,
      "max": [
        1.4450247287750244,
        1.0589120388031006,
        1.9360082149505615
      ],
      "min": [
        -1.7184345722198486,
        -1.185152292251587,
        -0.9942097067832947
      ],
      "type": "VEC3"
    },
    {
      "bufferView": 2,
      "byteOffset": 1669848,
      "componentType": 5126,
      "count": 11576,
      "max": [
        0.2728385925292969,
        2.1205544471740723,
        6.664003849029541
      ],
      "min": [
        -0.3584117293357849,
        -2.2896580696105957,
        -7.480922698974609
      ],
      "type": "VEC3"
    },
    {
      "bufferView": 2,
      "byteOffset": 1808760,
      "componentType": 5126,
      "count": 11576,
      "max": [
        1.4788663387298584,
        1.3936595916748047,
        1.6440064907073975
      ],
      "min": [
        -1.8138759136199951,
        -1.2687222957611084,
        -1.0524859428405762
      ],
      "type": "VEC3"
    },
    {
      "bufferView": 2,
      "byteOffset": 1947672,
      "componentType": 5126,
      "count": 11576,
      "max": [
        0.2902500629425049,
        1.8215594291687012,
        9.066387176513672
      ],
      "min": [
        -0.3907788395881653,
        -2.262056827545166,
        -8.57541561126709
      ],
      "type": "VEC3"
    },
    {
      "bufferView": 2,
      "byteOffset": 2086584,
      "componentType": 5126,
      "count": 11576,
      "max": [
        1.4915412664413452,
        1.4256229400634766,
        1.612441062927246
      ],
      "min": [
        -1.8648712635040283,
        -1.314079999923706,
        -1.1123685836791992
      ],
      "type": "VEC3"
    },
    {
      "bufferView": 2,
      "byteOffset": 2225496,
      "componentType": 5126,
      "count": 11576,
      "max": [
        0.2860896587371826,
        1.8036575317382813,
        11.153475761413574
      ],
      "min": [
        -0.41214317083358765,
        -2.1814589500427246,
        -9.4525728225708
      ],
      "type": "VEC3"
    },
    {
      "bufferView": 2,
      "byteOffset": 2364408,
      "componentType": 5126,
      "count": 11576,
      "max": [
        1.4966145753860474,
        1.2401667833328247,
        1.5833511352539063
      ],
      "min": [
        -1.8901290893554688,
        -1.345630168914795,
        -1.180222749710083
      ],
      "type": "VEC3"
    },
    {
      "bufferView": 2,
      "byteOffset": 2503320,
      "componentType": 5126,
      "count": 11576,
      "max": [
        0.28848034143447876,
        2.023406982421875,
        12.634520530700684
      ],
      "min": [
        -0.42310065031051636,
        -2.1174440383911133,
        -11.528820037841797
      ],
      "type": "VEC3"
    },
    {
      "bufferView": 2,
      "byteOffset": 2642232,
      "componentType": 5126,
      "count": 11576,
      "max": [
        1.498462200164795,
        1.480945348739624,
        1.5613731145858765
      ],
      "min": [
        -1.9051768779754639,
        -1.6115028858184814,
        -1.568068265914917
      ],
      "type": "VEC3"
    },
    {
      "bufferView": 2,
      "byteOffset": 2781144,
      "componentType": 5126,
      "count": 11576,
      "max": [
        0.2920653223991394,
        2.338426113128662,
        13.508672714233398
      ],
      "min": [
        -0.42566555738449097,
        -2.338433027267456,
        -13.508678436279297
      ],
      "type": "VEC3"
    },
    {
      "bufferView": 2,
      "byteOffset": 2920056,
      "componentType": 5126,
      "count": 11576,
      "max": [
        1.4983470439910889,
        1.765944480895996,
        1.763375163078308
      ],
      "min": [
        -1.9100264310836792,
        -1.765944242477417,
        -1.7633757591247559
      ],
      "type": "VEC3"
    },
    {
      "bufferView": 2,
      "byteOffset": 3058968,
      "componentType": 5126,
      "count": 11576,
      "max": [
        0.26255762577056885,
        3.1972081661224365,
        13.819973945617676
      ],
      "min": [
        -0.2947435975074768,
        -2.948908567428589,
        -13.472105026245117
      ],
      "type": "VEC3"
    },
    {
      "bufferView": 2,
      "byteOffset": 3197880,
      "componentType": 5126,
      "count": 11576,
      "max": [
        1.489675760269165,
        1.8977705240249634,
        1.78609299659729
      ],
      "min": [
        -1.870516061782837,
        -1.8730998039245605,
        -1.896062970161438
      ],
      "type": "VEC3"
    },
    {
      "bufferView": 2,
      "byteOffset": 3336792,
      "componentType": 5126,
      "count": 11576,
      "max": [
        0.24838757514953613,
        3.7116076946258545,
        13.077203750610352
      ],
      "min": [
        -0.2849390506744385,
        -2.910130023956299,
        -13.01989459991455
      ],
      "type": "VEC3"
    },
    {
      "bufferView": 2,
      "byteOffset": 3475704,
      "componentType": 5126,
      "count": 11576,
      "max": [
        1.4836740493774414,
        1.951859474182129,
        1.9033327102661133
      ],
      "min": [
        -1.7443819046020508,
        -1.8862290382385254,
        -1.9238272905349731
      ],
      "type": "VEC3"
    },
    {
      "bufferView": 2,
      "byteOffset": 3614616,
      "componentType": 5126,
      "count": 11576,
      "max": [
        0.2408275604248047,
        3.936483144760132,
        11.507862091064453
      ],
      "min": [
        -0.37448859214782715,
        -2.8782687187194824,
        -12.227580070495605
      ],
      "type": "VEC3"
    },
    {
      "bufferView": 2,
      "byteOffset": 3753528,
      "componentType": 5126,
      "count": 11576,
      "max": [
        1.5028492212295532,
        1.9723432064056396,
        1.951019525527954
      ],
      "min": [
        -1.3738043308258057,
        -1.9135761260986328,
        -1.9228378534317017
      ],
      "type": "VEC3"
    },
    {
      "bufferView": 2,
      "byteOffset": 3892440,
      "componentType": 5126,
      "count": 11576,
      "max": [
        0.2226313352584839,
        3.8310306072235107,
        9.861089706420898
      ],
      "min": [
        -0.495011568069458,
        -2.9298908710479736,
        -10.998443603515625
      ],
      "type": "VEC3"
    },
    {
      "bufferView": 2,
      "byteOffset": 4031352,
      "componentType": 5126,
      "count": 11576,
      "max": [
        1.5094125270843506,
        1.9534231424331665,
        1.9386537075042725
      ],
      "min": [
        -1.2136542797088623,
        -1.9647860527038574,
        -1.9240285158157349
      ],
      "type": "VEC3"
    },
    {
      "bufferView": 2,
      "byteOffset": 4170264,
      "componentType": 5126,
      "count": 11576,
      "max": [
        0.19134438037872314,
        3.3437352180480957,
        8.335046768188477
      ],
      "min": [
        -0.389945387840271,
        -2.9298903942108154,
        -9.146524429321289
      ],
      "type": "VEC3"
    },
    {
      "bufferView": 2,
      "byteOffset": 4309176,
      "componentType": 5126,
      "count": 11576,
      "max": [
        1.485674262046814,
        1.8797190189361572,
        1.816043734550476
      ],
      "min": [
        -1.2044250965118408,
        -1.9620875120162964,
        -1.8743737936019897
      ],
      "type": "VEC3"
    },
    {
      "bufferView": 2,
      "byteOffset": 4448088,
      "componentType": 5126,
      "count": 11576,
      "max": [
        0.1567007303237915,
        2.692518949508667,
        6.8850884437561035
      ],
      "min": [
        -0.24703848361968994,
        -2.9233720302581787,
        -6.844668388366699
      ],
      "type": "VEC3"
    },
    {
      "bufferView": 2,
      "byteOffset": 4587000,
      "componentType": 5126,
      "count": 11576,
      "max": [
        1.4605522155761719,
        1.8292557001113892,
        1.5892019271850586
      ],
      "min": [
        -0.6337070465087891,
        -1.9495553970336914,
        -1.6958924531936646
      ],
      "type": "VEC3"
    },
    {
      "bufferView": 2,
      "byteOffset": 4725912,
      "componentType": 5126,
      "count": 11576,
      "max": [
        0.11810731887817383,
        1.9433469772338867,
        5.590926647186279
      ],
      "min": [
        -0.22179639339447021,
        -2.917849540710449,
        -4.442288398742676
      ],
      "type": "VEC3"
    },
    {
      "bufferView": 2,
      "byteOffset": 4864824,
      "componentType": 5126,
      "count": 11576,
      "max": [
        1.401421308517456,
        1.726184606552124,
        1.5877788066864014
      ],
      "min": [
        -0.4636310636997223,
        -1.8916360139846802,
        -1.6079959869384766
      ],
      "type": "VEC3"
    },
    {
      "bufferView": 2,
      "byteOffset": 5003736,
      "componentType": 5126,
      "count": 11576,
      "max": [
        0.08039021492004395,
        1.271824836730957,
        4.441245079040527
      ],
      "min": [
        -0.19868981838226318,
        -2.923574447631836,
        -2.355198383331299
      ],
      "type": "VEC3"
    },
    {
      "bufferView": 2,
      "byteOffset": 5142648,
      "componentType": 5126,
      "count": 11576,
      "max": [
        1.1408019065856934,
        1.6351444721221924,
        1.5873384475708008
      ],
      "min": [
        -0.3957182765007019,
        -1.7935352325439453,
        -1.511054515838623
      ],
      "type": "VEC3"
    },
    {
      "bufferView": 2,
      "byteOffset": 5281560,
      "componentType": 5126,
      "count": 11576,
      "max": [
        0.04352104663848877,
        0.5608976483345032,
        1.9798545837402344
      ],
      "min": [
        -0.08459603786468506,
        -1.9473648071289063,
        -0.7782421112060547
      ],
      "type": "VEC3"
    },
    {
      "bufferView": 2,
      "byteOffset": 5420472,
      "componentType": 5126,
      "count": 11576,
      "max": [
        0.3391096293926239,
        0.7869577407836914,
        0.7896954417228699
      ],
      "min": [
        -0.2744477689266205,
        -0.8908448815345764,
        -0.9219777584075928
      ],
      "type": "VEC3"
    },
    {
      "bufferView": 2,
      "byteOffset": 5559384,
      "componentType": 5126,
      "count": 11576,
      "max": [
        0.0,
        0.0,
        0.0
      ],
      "min": [
        0.0,
        0.0,
        0.0
      ],
      "type": "VEC3"
    },
    {
      "bufferView": 2,
      "byteOffset": 5698296,
      "componentType": 5126,
      "count": 11576,
      "max": [
        1.1920928955078125e-07,
        1.1920928955078125e-07,
        1.1920928955078125e-07
      ],
      "min": [
        -1.1920928955078125e-07,
        -1.1920928955078125e-07,
        -1.7881393432617188e-07
      ],
      "type": "VEC3"
    },
    {
      "bufferView": 0,
      "byteOffset": 2400,
      "componentType": 5125,
      "count": 61752,
      "type": "SCALAR"
    },
    {
      "bufferView": 3,
      "componentType": 5126,
      "count": 21,
      "max": [
        0.875
      ],
      "min": [
        0.0416666679084301
      ],
      "type": "SCALAR"
    },
    {
      "bufferView": 3,
      "byteOffset": 84,
      "componentType": 5126,
      "count": 420,
      "max": [
        1.0
      ],
      "min": [
        0.0
      ],
      "type": "SCALAR"
    }
  ],
  "animations": [
    {
      "channels": [
        {
          "sampler": 0,
          "target": {
            "node": 10,
            "path": "weights"
          }
        }
      ],
      "name": "Object_0",
      "samplers": [
        {
          "input": 48,
          "interpolation": "LINEAR",
          "output": 49
        }
      ]
    }
  ],
  "asset": {
    "extras": {
      "author": "Amitesh Nandan (https://sketchfab.com/creatureanimator)",
      "license": "CC-BY-ND-4.0 (http://creativecommons.org/licenses/by-nd/4.0/)",
      "source": "https://sketchfab.com/3d-models/horse-trot-7e24b8c46d284b519d416035e6445903",
      "title": "Horse Trot"
    },
    "generator": "Sketchfab-15.0.0",
    "version": "2.0"
  },
  "bufferViews": [
    {
      "buffer": 0,
      "byteLength": 249408,
      "name": "floatBufferViews",
      "target": 34963
    },
    {
      "buffer": 0,
      "byteLength": 93576,
      "byteOffset": 249408,
      "byteStride": 8,
      "name": "floatBufferViews",
      "target": 34962
    },
    {
      "buffer": 0,
      "byteLength": 5837208,
      "byteOffset": 342984,
      "byteStride": 12,
      "name": "floatBufferViews",
      "target": 34962
    },
    {
      "buffer": 0,
      "byteLength": 1764,
      "byteOffset": 6180192,
      "name": "floatBufferViews"
    }
  ],
  "buffers": [
    {
      "byteLength": 6181956,
      "uri": "scene.bin"
    }
  ],
  "extensionsUsed": [
    "KHR_materials_specular"
  ],
  "images": [
    {
      "uri": "textures/Horse1Shape_baseColor.jpeg"
    },
    {
      "uri": "textures/Horse1Shape_metallicRoughness.png"
    },
    {
      "uri": "textures/Horse1Shape_specularf0.png"
    }
  ],
  "materials": [
    {
      "doubleSided": true,
      "name": "Ground_PlaneShape1",
      "pbrMetallicRoughness": {
        "baseColorFactor": [
          0.8,
          0.8,
          0.8,
          1.0
        ],
        "metallicFactor": 0.0,
        "roughnessFactor": 0.6
      }
    },
    {
      "doubleSided": true,
      "extensions": {
        "KHR_materials_specular": {
          "specularColorFactor": [
            1.0,
            1.0,
            1.0
          ],
          "specularFactor": 1.0,
          "specularTexture": {
            "index": 2
          }
        }
      },
      "name": "Horse1Shape",
      "pbrMetallicRoughness": {
        "baseColorTexture": {
          "index": 0
        },
        "metallicFactor": 0.0,
        "metallicRoughnessTexture": {
          "index": 1
        }
      }
    }
  ],
  "meshes": [
    {
      "name": "Ground_PlaneShape1_2_0",
      "primitives": [
        {
          "attributes": {
            "NORMAL": 1,
            "POSITION": 0,
            "TEXCOORD_0": 2
          },
          "indices": 3,
          "material": 0,
          "mode": 4
        }
      ]
    },
    {
      "name": "Horse1Shape",
      "primitives": [
        {
          "attributes": {
            "NORMAL": 5,
            "POSITION": 4,
            "TEXCOORD_0": 6
          },
          "indices": 47,
          "material": 1,
          "mode": 4,
          "targets": [
            {
              "NORMAL": 8,
              "POSITION": 7
            },
            {
              "NORMAL": 10,
              "POSITION": 9
            },
            {
              "NORMAL": 12,
              "POSITION": 11
            },
            {
              "NORMAL": 14,
              "POSITION": 13
            },
            {
              "NORMAL": 16,
              "POSITION": 15
            },
            {
              "NORMAL": 18,
              "POSITION": 17
            },
            {
              "NORMAL": 20,
              "POSITION": 19
            },
            {
              "NORMAL": 22,
              "POSITION": 21
            },
            {
              "NORMAL": 24,
              "POSITION": 23
            },
            {
              "NORMAL": 26,
              "POSITION": 25
            },
            {
              "NORMAL": 28,
              "POSITION": 27
            },
            {
              "NORMAL": 30,
              "POSITION": 29
            },
            {
              "NORMAL": 32,
              "POSITION": 31
            },
            {
              "NORMAL": 34,
              "POSITION": 33
            },
            {
              "NORMAL": 36,
              "POSITION": 35
            },
            {
              "NORMAL": 38,
              "POSITION": 37
            },
            {
              "NORMAL": 40,
              "POSITION": 39
            },
            {
              "NORMAL": 42,
              "POSITION": 41
            },
            {
              "NORMAL": 44,
              "POSITION": 43
            },
            {
              "NORMAL": 46,
              "POSITION": 45
            }
          ]
        }
      ],
      "weights": [
        0.0,
        0.0,
        0.0,
        0.0,
        0.0,
        0.0,
        0.0,
        0.0,
        0.0,
        0.0,
        0.0,
        0.0,
        0.0,
        0.0,
        0.0,
        0.0,
        0.0,
        0.0,
        0.0,
        0.0
      ]
    }
  ],
  "nodes": [
    {
      "children": [
        1
      ],
      "matrix": [
        1.0,
        0.0,
        0.0,
        0.0,
        0.0,
        2.220446049250313e-16,
        -1.0,
        0.0,
        0.0,
        1.0,
        2.220446049250313e-16,
        0.0,
        0.0,
        0.0,
        0.0,
        1.0
      ],
      "name": "Sketchfab_model"
    },
    {
      "children": [
        2
      ],
      "name": "b3c9bcb94f114ebeafddc7c3390b8d44.abc.cleaner.materialmerger.gles"
    },
    {
      "children": [
        3
      ],
      "matrix": [
        1.0,
        0.0,
        0.0,
        0.0,
        0.0,
        2.220446049250313e-16,
        1.0,
        0.0,
        0.0,
        -1.0,
        2.220446049250313e-16,
        0.0,
        0.0,
        0.0,
        0.0,
        1.0
      ],
      "name": "Object_2"
    },
    {
      "children": [
        4,
        8
      ],
      "name": "Object_3"
    },
    {
      "children": [
        5
      ],
      "matrix": [
        246.03579993770268,
        0.0,
        0.0,
        0.0,
        0.0,
        246.03579993770268,
        0.0,
        0.0,
        0.0,
        0.0,
        246.03579993770268,
        0.0,
        0.0,
        0.0,
        0.0,
        1.0
      ],
      "name": "Object_4"
    },
    {
      "children": [
        6
      ],
      "name": "TimeframeMainGroup"
    },
    {
      "children": [
        7
      ],
      "name": "Object_6"
    },
    {
      "mesh": 0,
      "name": "Ground_PlaneShape1_2_0"
    },
    {
      "children": [
        9
      ],
      "name": "Object_8"
    },
    {
      "children": [
        10
      ],
      "name": "MorphMainGroup"
    },
    {
      "mesh": 1,
      "name": "Horse1Shape"
    }
  ],
  "samplers": [
    {
      "magFilter": 9729,
      "minFilter": 9987,
      "wrapS": 10497,
      "wrapT": 10497
    }
  ],
  "scene": 0,
  "scenes": [
    {
      "name": "Sketchfab_Scene",
      "nodes": [
        0
      ]
    }
  ],
  "textures": [
    {
      "sampler": 0,
      "source": 0
    },
    {
      "sampler": 0,
      "source": 1
    },
    {
      "sampler": 0,
      "source": 2
    }
  ]
}
